{"title":"Mega Shark vs. Kolossus 2015 HDRip XviD AC3-MenaceIISociety","uid":12161444,"size":1192103341,"categoryP":"video","categoryS":"movies","magnet":"?xt=urn:btih:aca46143e7a53a0006839fc280ee42ace008ed0c&amp;dn=Mega+Shark+vs.+Kolossus+2015+HDRip+XviD+AC3-MenaceIISociety&amp;tr=udp%3A%2F%2Ftracker.openbittorrent.com%3A80&amp;tr=udp%3A%2F%2Fopen.demonii.com%3A1337&amp;tr=udp%3A%2F%2Ftracker.coppersurfer.tk%3A6969&amp;tr=udp%3A%2F%2Fexodus.desync.com%3A6969","seeders":7,"leechers":10,"uploader":"xxxlavalxxx","files":4,"time":1437921497,"description":" &lt;a href=&quot;http://extraimago.com/image/EWx&quot; rel=&quot;nofollow&quot; target=&quot;_NEW&quot;&gt;http://extraimago.com/image/EWx&lt;/a&gt;\n &lt;a href=&quot;\nhttp://www.imdb.com/title/tt4566574/&quot; rel=&quot;nofollow&quot; target=&quot;_NEW&quot;&gt;\nhttp://www.imdb.com/title/tt4566574/&lt;/a&gt;\n\n\nIn search of a new energy source, Russia accidentally reawakens the Kolossus - a giant robot doomsday device from the Cold War. At the same time, a new Mega Shark appears, threatening global security.\n\nDirector: Christopher Ray (as Christopher Douglas-Olen Ray)\nWriter: Edward DeRuiter (screenplay)\nStars: Illeana Douglas, Amy Rider, Brody Hutzler \nGenres: Action | Horror | Sci-Fi | Thriller\nCountry: USA\nLanguage: English\n\n\nSource: Pyre8Storm [THANKS]\n\nNOTE: resized and stuck a blur over the syfy logo bottom right, enjoy \n\nGeneral\nComplete name: Mega Shark vs. Kolossus 2015 HDRip XviD AC3-MenaceIISociety.avi\nFormat: AVI\nFormat/Info: Audio Video Interleave\nFile size: 1.08 GiB\nDuration: 1h 25mn\nOverall bit rate: 1 811 Kbps\n\nVideo\nID: 0\nFormat: MPEG-4 Visual\nFormat profile: Advanced Simple@L5\nFormat settings, BVOP: 2\nFormat settings, QPel: No\nFormat settings, GMC: No warppoints\nFormat settings, Matrix: Default (H.263)\nMuxing mode: Packed bitstream\nCodec ID: XVID\nCodec ID/Hint: XviD\nDuration: 1h 25mn\nBit rate: 1 419 Kbps\nWidth: 720 pixels\nHeight: 400 pixels\nDisplay aspect ratio: 16:9\nFrame rate: 25.000 fps\nColor space: YUV\nChroma subsampling: 4:2:0\nBit depth: 8 bits\nScan type: Progressive\nCompression mode: Lossy\nBits/(Pixel*Frame): 0.197\nStream size: 865 MiB (78%)\nWriting library: XviD 64\n\nAudio\nID: 1\nFormat: AC-3\nFormat/Info: Audio Coding 3\nMode extension: CM (complete main)\nFormat settings, Endianness: Big\nCodec ID: 2000\nDuration: 1h 25mn\nBit rate mode: Constant\nBit rate: 384 Kbps\nChannel(s): 2 channels\nChannel positions: Front: L R\nSampling rate: 48.0 KHz\nCompression mode: Lossy\nStream size: 234 MiB (21%)\nAlignment: Aligned on interleaves\nInterleave, duration: 64 ms (1.60 video frames)\nInterleave, preload duration: 192 ms \n\n &lt;a href=&quot;\nhttp://extraimago.com/image/EW6&quot; rel=&quot;nofollow&quot; target=&quot;_NEW&quot;&gt;\nhttp://extraimago.com/image/EW6&lt;/a&gt; &lt;a href=&quot;\nhttp://extraimago.com/image/EWV&quot; rel=&quot;nofollow&quot; target=&quot;_NEW&quot;&gt;\nhttp://extraimago.com/image/EWV&lt;/a&gt; &lt;a href=&quot;\nhttp://extraimago.com/image/EWu&quot; rel=&quot;nofollow&quot; target=&quot;_NEW&quot;&gt;\nhttp://extraimago.com/image/EWu&lt;/a&gt; &lt;a href=&quot;\nhttp://extraimago.com/image/EWv&quot; rel=&quot;nofollow&quot; target=&quot;_NEW&quot;&gt;\nhttp://extraimago.com/image/EWv&lt;/a&gt; &lt;a href=&quot;\nhttp://extraimago.com/image/EWA&quot; rel=&quot;nofollow&quot; target=&quot;_NEW&quot;&gt;\nhttp://extraimago.com/image/EWA&lt;/a&gt;","torrent":{"xt":"urn:btih:aca46143e7a53a0006839fc280ee42ace008ed0c","amp;dn":"Mega+Shark+vs.+Kolossus+2015+HDRip+XviD+AC3-MenaceIISociety","amp;tr":["udp%3A%2F%2Ftracker.openbittorrent.com%3A80","udp%3A%2F%2Fopen.demonii.com%3A1337","udp%3A%2F%2Ftracker.coppersurfer.tk%3A6969","udp%3A%2F%2Fexodus.desync.com%3A6969"],"infoHash":"aca46143e7a53a0006839fc280ee42ace008ed0c","infoHashBuffer":{"type":"Buffer","data":[172,164,97,67,231,165,58,0,6,131,159,194,128,238,66,172,224,8,237,12]},"announce":[],"urlList":[]}}